<svg width="60" height="60" viewBox="0 0 60 60" fill="none" xmlns="http://www.w3.org/2000/svg">
<path fill-rule="evenodd" clip-rule="evenodd" d="M29.5108 59.9961L30 60C29.8285 60 29.6573 59.9986 29.4864 59.9957C29.3302 59.9931 29.1742 59.9893 29.0185 59.9842C29.009 59.9839 28.9994 59.9836 28.9899 59.9833C28.8335 59.9781 28.6774 59.9718 28.5217 59.9642C28.5174 59.964 28.5131 59.9638 28.5087 59.9636C28.3499 59.9558 28.1915 59.9468 28.0334 59.9366C28.0272 59.9362 28.021 59.9358 28.0147 59.9354C27.8597 59.9252 27.7051 59.9139 27.5509 59.9015C27.5405 59.9006 27.5302 59.8998 27.5198 59.8989C27.3672 59.8865 27.2149 59.8728 27.0629 59.8581C27.0551 59.8573 27.0474 59.8565 27.0397 59.8558C26.8873 59.8409 26.7353 59.8248 26.5836 59.8076C26.5727 59.8064 26.5618 59.8051 26.5509 59.8039C26.4045 59.7871 26.2583 59.7693 26.1124 59.7504C26.0939 59.748 26.0754 59.7456 26.0569 59.7432C25.9196 59.7252 25.7826 59.7062 25.6459 59.6863C25.6207 59.6827 25.5956 59.679 25.5706 59.6753C25.4344 59.6551 25.2984 59.634 25.1626 59.612C25.1426 59.6088 25.1227 59.6055 25.1027 59.6022C24.9621 59.5792 24.8217 59.5551 24.6818 59.53C24.6671 59.5274 24.6524 59.5248 24.6377 59.5221C24.498 59.4969 24.3587 59.4707 24.2197 59.4436C24.1997 59.4397 24.1797 59.4358 24.1597 59.4319C24.0238 59.405 23.8882 59.3773 23.7528 59.3486C23.7323 59.3443 23.7119 59.3399 23.6915 59.3356C23.556 59.3066 23.4208 59.2766 23.2859 59.2458C23.2676 59.2416 23.2493 59.2374 23.2309 59.2332C23.0931 59.2014 22.9555 59.1686 22.8183 59.1349C22.8021 59.1309 22.7858 59.1269 22.7695 59.1229C22.6329 59.0891 22.4968 59.0544 22.3611 59.0187C22.3442 59.0143 22.3273 59.0099 22.3104 59.0054C22.1742 58.9694 22.0383 58.9324 21.9027 58.8945C21.8876 58.8903 21.8725 58.886 21.8574 58.8818C21.7169 58.8423 21.5769 58.8018 21.4373 58.7603C21.4277 58.7574 21.4182 58.7546 21.4086 58.7517C21.2674 58.7096 21.1265 58.6664 20.9861 58.6222C20.9764 58.6192 20.9666 58.6161 20.9568 58.613C20.6622 58.52 20.3695 58.4225 20.0789 58.3207C20.0767 58.3199 20.0744 58.3191 20.0722 58.3184L20.0674 58.3167C19.6296 58.1631 19.1965 57.9997 18.7683 57.8267C18.7551 57.8214 18.742 57.8161 18.7289 57.8108C18.5948 57.7564 18.4611 57.701 18.3279 57.6447C18.3222 57.6423 18.3167 57.6399 18.3111 57.6376C18.1755 57.5802 18.0405 57.5218 17.906 57.4625C17.8944 57.4574 17.8829 57.4523 17.8714 57.4472C17.74 57.389 17.6092 57.33 17.4789 57.2701C17.4694 57.2657 17.4601 57.2614 17.4507 57.2571C17.3219 57.1977 17.1936 57.1374 17.0658 57.0763C17.0498 57.0686 17.0338 57.0609 17.0177 57.0532C16.8944 56.9939 16.7715 56.9338 16.6491 56.8729C16.6325 56.8646 16.616 56.8563 16.5994 56.8481C16.4766 56.7866 16.3542 56.7244 16.2322 56.6613C16.2183 56.6541 16.2045 56.6469 16.1907 56.6397C16.0699 56.577 15.9495 56.5134 15.8296 56.4491C15.8099 56.4385 15.7902 56.4278 15.7704 56.4172C15.6506 56.3525 15.5312 56.287 15.4124 56.2207C15.4011 56.2145 15.3899 56.2082 15.3787 56.2019C15.2552 56.1329 15.1322 56.0629 15.0097 55.9922C14.9981 55.9854 14.9864 55.9787 14.9747 55.9719C14.8569 55.9036 14.7396 55.8345 14.6228 55.7646C14.6029 55.7528 14.5832 55.7409 14.5634 55.729C14.4501 55.6609 14.3372 55.592 14.2249 55.5224C14.2092 55.5127 14.1937 55.5031 14.1781 55.4934C14.0613 55.4207 13.945 55.3473 13.8293 55.2731C13.815 55.264 13.8007 55.2548 13.7865 55.2456C13.6712 55.1714 13.5564 55.0965 13.4423 55.0208C13.4295 55.0123 13.4167 55.0038 13.4039 54.9953C13.2888 54.9187 13.1742 54.8413 13.0602 54.7632C13.0473 54.7543 13.0344 54.7455 13.0216 54.7366C12.9038 54.6557 12.7867 54.5739 12.6702 54.4913C12.663 54.4862 12.6559 54.4811 12.6487 54.4761C11.776 53.8562 10.9378 53.1909 10.1377 52.4835C10.1282 52.4752 10.1188 52.4669 10.1095 52.4585C9.89047 52.2645 9.67434 52.0672 9.46114 51.8669C9.44955 51.856 9.43801 51.8451 9.42647 51.8343C9.33732 51.7502 9.24866 51.6656 9.16052 51.5805C3.51228 46.1249 0 38.4726 0 30C0 13.4315 13.4315 0 30 0C37.9565 0 45.5871 3.16071 51.2132 8.7868C56.8393 14.4129 60 22.0435 60 30C60 38.4729 56.4875 46.1254 50.8392 51.5808C50.8389 51.5812 50.839 51.5818 50.8391 51.5825C49.4212 52.951 47.8693 54.181 46.2051 55.2511C46.1973 55.256 46.1896 55.261 46.1819 55.266C46.0643 55.3414 45.9462 55.4161 45.8275 55.4899C45.8125 55.4992 45.7975 55.5085 45.7826 55.5178C45.6671 55.5894 45.5511 55.6602 45.4345 55.7302C45.4199 55.7391 45.4051 55.748 45.3903 55.7568C45.2726 55.8273 45.1544 55.8969 45.0357 55.9658C45.0221 55.9738 45.0084 55.9817 44.9947 55.9896C44.7373 56.1384 44.4775 56.2835 44.2153 56.4248C44.1975 56.4345 44.1795 56.4442 44.1615 56.4538C44.0434 56.5171 43.9248 56.5797 43.8058 56.6414C43.7891 56.6502 43.7724 56.6589 43.7556 56.6675C43.64 56.7272 43.5239 56.7862 43.4074 56.8446C43.3813 56.8577 43.3551 56.8708 43.3288 56.8839C43.2174 56.9391 43.1058 56.9937 42.9937 57.0476C42.9688 57.0597 42.9437 57.0717 42.9186 57.0837C42.804 57.1384 42.6892 57.1923 42.574 57.2456C42.5495 57.257 42.5249 57.2684 42.5003 57.2797C42.382 57.3338 42.2633 57.3874 42.1442 57.4401C42.1242 57.4491 42.1041 57.458 42.0841 57.4669C41.96 57.5214 41.8355 57.5753 41.7105 57.6283C41.6928 57.6359 41.6752 57.6434 41.6575 57.6509C41.5276 57.7056 41.3972 57.7595 41.2664 57.8126C41.2449 57.8214 41.2234 57.8301 41.2019 57.8387C41.0808 57.8874 40.9592 57.9354 40.8373 57.9827C40.8125 57.9924 40.7876 58.002 40.7626 58.0116C40.6405 58.0585 40.5181 58.1046 40.3953 58.15C40.3757 58.1573 40.3561 58.1645 40.3365 58.1717C40.2141 58.2166 40.0912 58.2608 39.968 58.3042C39.941 58.3137 39.9139 58.3232 39.8869 58.3327C39.7638 58.3755 39.6405 58.4177 39.5167 58.459C39.4951 58.4663 39.4735 58.4735 39.4519 58.4807C39.3239 58.5231 39.1954 58.5647 39.0666 58.6055C39.0486 58.6113 39.0307 58.617 39.0127 58.6226C38.8757 58.6656 38.7382 58.7078 38.6003 58.749C38.5914 58.7517 38.5826 58.7543 38.5738 58.757C38.433 58.7988 38.2918 58.8397 38.1502 58.8796C38.1311 58.885 38.1121 58.8904 38.093 58.8957C37.9583 58.9333 37.8232 58.97 37.6877 59.0059C37.6701 59.0106 37.6524 59.0152 37.6348 59.0198C37.5009 59.0549 37.3667 59.0891 37.2321 59.1224C37.2153 59.1267 37.1984 59.1308 37.1814 59.135C37.0451 59.1684 36.9084 59.201 36.7714 59.2326C36.7521 59.2371 36.7328 59.2415 36.7134 59.246C36.5826 59.2758 36.4516 59.3049 36.3202 59.333C36.2949 59.3385 36.2695 59.3439 36.2442 59.3493C36.1133 59.3769 35.9822 59.4038 35.8508 59.4298C35.8297 59.4339 35.8086 59.4381 35.7875 59.4422C35.4882 59.5007 35.1873 59.5547 34.8849 59.6043C34.873 59.6062 34.8611 59.6082 34.8492 59.6101C34.701 59.6342 34.5525 59.6572 34.4036 59.6791C34.39 59.6811 34.3764 59.6831 34.3628 59.6851C34.2174 59.7062 34.0717 59.7264 33.9256 59.7455C33.913 59.7471 33.9003 59.7488 33.8877 59.7504C33.7423 59.7692 33.5966 59.787 33.4506 59.8037C33.436 59.8054 33.4215 59.807 33.4069 59.8087C33.261 59.8252 33.1148 59.8406 32.9682 59.855C32.9543 59.8564 32.9403 59.8577 32.9263 59.8591C32.7797 59.8733 32.6327 59.8864 32.4854 59.8985C32.4704 59.8997 32.4554 59.901 32.4404 59.9022C32.2887 59.9144 32.1368 59.9255 31.9846 59.9354C31.9782 59.9358 31.9718 59.9362 31.9655 59.9366C31.8063 59.9469 31.6467 59.956 31.4867 59.9638C31.4847 59.9639 31.4827 59.964 31.4806 59.9641C31.3232 59.9717 31.1656 59.9782 31.0077 59.9834L31.0017 59.9836C30.6691 59.9945 30.3352 60 30 60C29.8366 60 29.6736 59.9987 29.5108 59.9961ZM33 42H27C22.2211 42 18.0416 44.8121 16.1202 48.9238L15.903 49.422L16.091 49.561C19.5105 51.9968 23.5958 53.5583 28.0208 53.9196C28.0269 53.9201 28.033 53.9205 28.039 53.921L28.0208 53.9196C28.1529 53.9303 28.2852 53.9401 28.4179 53.9487L28.039 53.921C28.168 53.9315 28.2972 53.9409 28.4266 53.9492L28.4179 53.9487C28.5461 53.957 28.6746 53.9644 28.8034 53.9707L28.4266 53.9492C28.5603 53.9579 28.6943 53.9655 28.8285 53.9719L28.8034 53.9707C28.8997 53.9754 28.9961 53.9796 29.0927 53.9832L30 54L30.3761 53.9971C30.3879 53.9969 30.3996 53.9967 30.4114 53.9965C30.5382 53.9944 30.6647 53.9913 30.7909 53.9872L30.4114 53.9965C30.5393 53.9944 30.6669 53.9912 30.7944 53.9871L30.7909 53.9872C30.9195 53.983 31.0479 53.9779 31.176 53.9717L30.7944 53.9871C30.9268 53.9828 31.059 53.9774 31.1909 53.971L31.176 53.9717C31.3094 53.9653 31.4426 53.9577 31.5755 53.9491L31.1909 53.971C31.3209 53.9646 31.4507 53.9572 31.5803 53.9488L31.5755 53.9491C31.7054 53.9407 31.8351 53.9312 31.9644 53.9208L31.5803 53.9488C31.7126 53.9402 31.8447 53.9305 31.9765 53.9198L31.9644 53.9208C32.0901 53.9106 32.2155 53.8994 32.3406 53.8873L31.9765 53.9198C32.1077 53.9091 32.2387 53.8973 32.3694 53.8845L32.3406 53.8873C36.6178 53.4734 40.5666 51.9366 43.8885 49.5756L44.094 49.422L43.8799 48.9244C42.0427 44.9914 38.1386 42.247 33.6199 42.0158L33 42ZM30 6C16.7452 6 6 16.7452 6 30C6 35.7239 8.0038 40.9799 11.3482 45.1046C14.4459 39.6663 20.2948 36 27 36H33C39.7055 36 45.5545 39.6666 48.6517 45.1042C51.9962 40.98 54 35.724 54 30C54 16.7452 43.2548 6 30 6ZM30 9C36.6274 9 42 14.3726 42 21C42 27.4266 36.9481 32.6732 30.5989 32.9853L30 33C23.3726 33 18 27.6274 18 21C18 14.5734 23.0519 9.32676 29.4011 9.01469L30 9ZM30 15C26.6863 15 24 17.6863 24 21C24 24.3137 26.6863 27 30 27C33.3137 27 36 24.3137 36 21C36 17.6863 33.3137 15 30 15Z" fill="#F8F9FA"/>
</svg>
